<svg width="184" height="84" viewBox="0 0 184 84" fill="none" xmlns="http://www.w3.org/2000/svg">
<path d="M59.9913 14.9836L54.1399 25.0529L51.3207 29.9003L19.906 83.9318H2.55933L42.6473 14.9836L45.4666 10.1349L48.4044 5.07747L51.3207 0.0682373L54.1399 4.91563L54.0443 5.07747H54.2342L59.9913 14.9836Z" fill="white"/>
<path d="M100.079 83.9318H82.7326L54.1399 34.7476L56.9578 29.9002L62.8092 19.8309L92.0013 70.0356L94.8192 74.883L100.079 83.9318Z" fill="white"/>
<path d="M141.353 14.9836L132.682 29.9003L103.49 80.105L97.6386 70.0357L94.8193 65.187L124.009 14.9836L129.766 5.07747L132.682 0.0682373L135.501 4.91563L135.407 5.07747H135.596L141.353 14.9836Z" fill="white"/>
<path d="M181.441 83.9318H164.094L135.501 34.7476L144.171 19.8309L181.441 83.9318Z" fill="white"/>
</svg>
