<svg width="50" height="50" viewBox="0 0 50 50" fill="none" xmlns="http://www.w3.org/2000/svg">
<path d="M48.4999 0H1.50101C0.787763 0 0.209717 0.578046 0.209717 1.2913V48.7087C0.209717 49.422 0.787763 50 1.50101 50H17.1249V49.9886C17.8301 49.9806 18.3703 49.5858 18.3952 48.9178C18.4592 47.1815 18.414 45.4416 18.414 43.763C17.1556 43.8217 15.9543 43.9806 14.7665 43.9122C12.1468 43.7613 10.1337 42.6435 9.08964 40.0782C8.47119 38.5585 7.5393 37.2587 6.08797 36.3913C5.81695 36.2292 5.57999 35.9905 5.37261 35.748C5.10159 35.4319 5.15229 35.1071 5.58052 35.0203C6.01254 34.9324 6.48452 34.8711 6.91055 34.9507C8.58378 35.2648 9.74084 36.3142 10.6265 37.71C12.3778 40.4713 15.0735 41.3166 18.1064 40.0414C18.2754 39.9703 18.4904 39.798 18.5223 39.6407C18.7668 38.4183 19.2236 37.3038 20.1443 36.3266C19.1207 36.137 18.1726 35.9975 17.2429 35.7819C14.5655 35.1624 12.1602 34.0479 10.4014 31.8343C8.96632 30.0286 8.31011 27.9148 8.00846 25.6651C7.53604 22.1415 7.9589 18.8431 10.3787 16.0272C10.501 15.885 10.5673 15.5935 10.5129 15.4163C9.90685 13.4361 9.99945 11.4725 10.6001 9.51431C10.9153 8.48594 11.0031 8.43471 12.0525 8.57801C12.1167 8.58663 12.1791 8.60274 12.2427 8.61357C14.3463 8.96161 16.1569 9.98021 17.9405 11.0738C18.1803 11.2209 18.5455 11.3124 18.809 11.2484C23.069 10.2146 27.3209 10.2189 31.5805 11.2521C31.8277 11.3119 32.158 11.2268 32.3944 11.1029C33.3641 10.596 34.2923 10.0067 35.2743 9.5261C36.4169 8.96751 37.6203 8.54729 38.9159 8.57044C39.1427 8.57475 39.4935 8.79129 39.5693 8.99172C40.3489 11.0571 40.5132 13.1618 39.892 15.3112C39.8257 15.5407 39.9243 15.8677 40.0477 16.0939C40.6608 17.2188 41.5168 18.2568 41.9047 19.45C43.0872 23.0867 42.6562 26.688 41.0465 30.106C39.5715 33.2391 36.836 34.8267 33.5979 35.6456C32.5043 35.922 31.3839 36.09 30.2041 36.3217C31.7502 37.9367 31.9926 39.9077 31.9651 41.972C31.9366 44.1015 31.9442 46.2316 31.943 48.3615C31.9425 49.3932 32.3928 49.9631 33.1788 49.9965C33.1783 49.9997 49.7907 49.9997 49.7907 49.9997V1.2913C49.7906 0.578046 49.2126 0 48.4999 0Z" fill="white"/>
</svg>
